<svg xmlns="http://www.w3.org/2000/svg" viewBox="0 0 820.24 416.84"><defs><style>.cls-1,.cls-26,.cls-3,.cls-4,.cls-5,.cls-6{fill:none;stroke-miterlimit:10;}.cls-1,.cls-3,.cls-4{stroke:#d82128;}.cls-1,.cls-3{stroke-width:0.75px;}.cls-19,.cls-2{fill:#d82128;}.cls-3{stroke-dasharray:12.43 12.43;}.cls-5{stroke:#1d1d1b;}.cls-5,.cls-6{stroke-width:2px;}.cls-26,.cls-6{stroke:#000;}.cls-7{font-size:18.22px;}.cls-27,.cls-7{fill:#1d1d1b;}.cls-19,.cls-27,.cls-7{font-family:MyriadPro-Regular, Myriad Pro;}.cls-8{letter-spacing:-0.01em;}.cls-9{letter-spacing:0em;}.cls-10{letter-spacing:-0.01em;}.cls-11{letter-spacing:0.01em;}.cls-12{letter-spacing:0em;}.cls-13{letter-spacing:0.01em;}.cls-14{letter-spacing:-0.01em;}.cls-15{letter-spacing:0.02em;}.cls-16{letter-spacing:0em;}.cls-17{letter-spacing:0.03em;}.cls-18{letter-spacing:-0.01em;}.cls-19{font-size:33.4px;}.cls-20{letter-spacing:0em;}.cls-21{letter-spacing:0em;}.cls-22{letter-spacing:0em;}.cls-23{letter-spacing:-0.01em;}.cls-24{letter-spacing:-0.04em;}.cls-25{letter-spacing:-0.07em;}.cls-26{stroke-width:3px;}.cls-27{font-size:34.74px;}</style></defs><title>git-abbildung</title><g id="print"><g id="Arbeiten_im_Team" data-name="Arbeiten im Team"><line class="cls-1" x1="487.99" y1="106.5" x2="487.99" y2="57.2"/><polygon class="cls-2" points="490.17 105.02 488 113.15 485.81 105.02 490.17 105.02"/><line class="cls-1" x1="575.97" y1="108.45" x2="610.83" y2="73.59"/><polygon class="cls-2" points="578.56 108.94 571.27 113.15 575.48 105.86 578.56 108.94"/><line class="cls-1" x1="357.34" y1="142.01" x2="406.63" y2="142.01"/><polygon class="cls-2" points="358.82 144.19 350.69 142.01 358.82 139.83 358.82 144.19"/><line class="cls-1" x1="487.99" y1="329.42" x2="487.99" y2="335.42"/><line class="cls-3" x1="487.99" y1="347.85" x2="487.99" y2="366.5"/><line class="cls-1" x1="487.99" y1="372.72" x2="487.99" y2="378.72"/><polygon class="cls-2" points="485.81 330.9 487.99 322.77 490.17 330.9 485.81 330.9"/><line class="cls-1" x1="357.34" y1="293.91" x2="406.63" y2="293.91"/><polygon class="cls-2" points="358.82 296.09 350.69 293.91 358.82 291.73 358.82 296.09"/><line class="cls-1" x1="357.34" y1="293.91" x2="406.63" y2="293.91"/><polygon class="cls-2" points="358.82 296.09 350.69 293.91 358.82 291.73 358.82 296.09"/><rect class="cls-2" x="481.95" y="172.34" width="12.1" height="54"/><polygon class="cls-2" points="466.67 226.34 487.99 263.58 509.32 226.34 466.67 226.34"/><line class="cls-1" x1="769.12" y1="198.89" x2="769.12" y2="248.19"/><polygon class="cls-2" points="766.94 200.37 769.12 192.24 771.3 200.37 766.94 200.37"/><line class="cls-4" x1="749.82" y1="239.33" x2="749.82" y2="192.24"/><polygon class="cls-2" points="752.73 237.34 749.82 248.19 746.92 237.34 752.73 237.34"/><rect class="cls-5" x="414.47" y="387.54" width="146.63" height="28.3"/><ellipse class="cls-5" cx="269.54" cy="142.01" rx="72.91" ry="20.04"/><ellipse class="cls-5" cx="487.79" cy="142.01" rx="72.91" ry="20.04"/><rect class="cls-5" x="414.47" y="20.08" width="146.63" height="28.3"/><rect class="cls-6" x="592.48" y="20.08" width="146.63" height="28.3"/><ellipse class="cls-5" cx="269.54" cy="293.91" rx="72.91" ry="20.04"/><ellipse class="cls-5" cx="487.79" cy="293.91" rx="72.91" ry="20.04"/><text class="cls-7" transform="translate(235.46 145.19)"><tspan class="cls-8">C</tspan><tspan x="10.37" y="0">ommit 1</tspan></text><text class="cls-7" transform="translate(234.31 300.11)"><tspan class="cls-8">C</tspan><tspan x="10.37" y="0">ommit 1</tspan></text><text class="cls-7" transform="translate(448.33 145.19)"><tspan class="cls-8">C</tspan><tspan x="10.37" y="0">ommit 2</tspan></text><text class="cls-7" transform="translate(448.33 300.11)"><tspan class="cls-8">C</tspan><tspan x="10.37" y="0">ommit 2</tspan></text><text class="cls-7" transform="translate(433.99 37.89)">o<tspan class="cls-9" x="10" y="0">r</tspan><tspan x="16.03" y="0">i</tspan><tspan class="cls-10" x="20.29" y="0">g</tspan><tspan x="30.37" y="0">in/</tspan><tspan class="cls-11" x="50.99" y="0">M</tspan><tspan class="cls-12" x="65.75" y="0">as</tspan><tspan class="cls-10" x="81.74" y="0">t</tspan><tspan x="87.66" y="0">er</tspan></text><text class="cls-7" transform="translate(617.02 37.89)">o<tspan class="cls-9" x="10" y="0">r</tspan><tspan x="16.03" y="0">i</tspan><tspan class="cls-10" x="20.29" y="0">g</tspan><tspan x="30.37" y="0">in/HEAD</tspan></text><text class="cls-7" transform="translate(525.63 224.01)"><tspan class="cls-10">g</tspan><tspan x="10.07" y="0">it clone</tspan></text><text class="cls-7" transform="translate(437.43 406.83)">HEA<tspan class="cls-13" x="31.99" y="0">D</tspan><tspan x="44.38" y="0">-</tspan><tspan class="cls-11" x="49.97" y="0">M</tspan><tspan x="64.73" y="0">as</tspan><tspan class="cls-10" x="80.72" y="0">t</tspan><tspan x="86.64" y="0">er</tspan></text><text class="cls-7" transform="translate(771.94 401.69)"><tspan class="cls-14">L</tspan><tspan x="8.34" y="0">o</tspan><tspan class="cls-15" x="18.34" y="0">k</tspan><tspan x="27.22" y="0">al</tspan></text><text class="cls-7" transform="translate(771.94 37.9)"><tspan class="cls-11">S</tspan><tspan class="cls-16" x="9.09" y="0">e</tspan><tspan class="cls-17" x="18.22" y="0">r</tspan><tspan class="cls-18" x="24.63" y="0">v</tspan><tspan x="33.21" y="0">er</tspan></text><text class="cls-7" transform="translate(698.12 224.01)">push</text><text class="cls-7" transform="translate(785.91 224.01)">pull</text><text class="cls-19" transform="translate(111.52 48.38)"><tspan class="cls-20">A</tspan><tspan class="cls-21" x="20.34" y="0">r</tspan><tspan class="cls-22" x="31.39" y="0">bei</tspan><tspan class="cls-23" x="74.95" y="0">t</tspan><tspan x="85.8" y="0">en im</tspan><tspan class="cls-24" x="163.82" y="0"> </tspan><tspan class="cls-25" x="169.53" y="0">T</tspan><tspan class="cls-22" x="183.76" y="0">eam</tspan></text><circle class="cls-26" cx="34.23" cy="34.23" r="32.73"/><text class="cls-27" transform="translate(27.44 44.75)">3</text></g></g></svg>