<svg xmlns="http://www.w3.org/2000/svg" viewBox="0 0 773.52 260.09"><defs><style>.cls-1,.cls-16,.cls-18,.cls-2,.cls-20{fill:none;stroke-miterlimit:10;}.cls-1,.cls-2{stroke:#1d1d1b;stroke-width:2px;}.cls-2{stroke-dasharray:12.65 12.65;}.cls-3,.cls-7{font-size:17.95px;}.cls-17,.cls-3,.cls-7{fill:#1d1d1b;}.cls-12,.cls-17,.cls-3,.cls-7{font-family:MyriadPro-Regular, Myriad Pro;}.cls-4{letter-spacing:0em;}.cls-5{letter-spacing:0.01em;}.cls-6{letter-spacing:0.02em;}.cls-7{letter-spacing:-0.01em;}.cls-8{letter-spacing:0em;}.cls-9{letter-spacing:0.01em;}.cls-10{letter-spacing:0.01em;}.cls-11{letter-spacing:-0.01em;}.cls-12{font-size:32.91px;}.cls-12,.cls-19{fill:#d82128;}.cls-13{letter-spacing:0em;}.cls-14{letter-spacing:0.01em;}.cls-15{letter-spacing:0.02em;}.cls-16{stroke:#000;stroke-width:3px;}.cls-17{font-size:34.23px;}.cls-18,.cls-20{stroke:#d82128;}.cls-20{stroke-dasharray:11.42 11.42;}</style></defs><title>git-abbildung</title><g id="print"><g id="Entwicklung"><ellipse class="cls-1" cx="266.84" cy="139.95" rx="71.84" ry="19.75"/><ellipse class="cls-1" cx="481.89" cy="139.95" rx="71.84" ry="19.75"/><ellipse class="cls-1" cx="696.95" cy="139.95" rx="71.84" ry="19.75"/><rect class="cls-1" x="409.05" y="230.57" width="144.49" height="27.88"/><rect class="cls-1" x="624.71" y="19.81" width="144.49" height="27.88"/><polyline class="cls-1" points="772.52 253.09 772.52 259.09 766.52 259.09"/><line class="cls-2" x1="753.87" y1="259.09" x2="633.7" y2="259.09"/><polyline class="cls-1" points="627.38 259.09 621.38 259.09 621.38 253.09"/><polyline class="cls-1" points="621.38 235.93 621.38 229.93 627.38 229.93"/><line class="cls-2" x1="640.03" y1="229.93" x2="760.2" y2="229.93"/><polyline class="cls-1" points="766.52 229.93 772.52 229.93 772.52 235.93"/><ellipse class="cls-1" cx="266.84" cy="139.95" rx="71.84" ry="19.75"/><ellipse class="cls-1" cx="481.89" cy="139.95" rx="71.84" ry="19.75"/><ellipse class="cls-1" cx="696.95" cy="139.95" rx="71.84" ry="19.75"/><rect class="cls-1" x="409.05" y="230.57" width="144.49" height="27.88"/><rect class="cls-1" x="624.71" y="19.81" width="144.49" height="27.88"/><polyline class="cls-1" points="772.52 253.09 772.52 259.09 766.52 259.09"/><line class="cls-2" x1="753.87" y1="259.09" x2="633.7" y2="259.09"/><polyline class="cls-1" points="627.38 259.09 621.38 259.09 621.38 253.09"/><polyline class="cls-1" points="621.38 235.93 621.38 229.93 627.38 229.93"/><line class="cls-2" x1="640.03" y1="229.93" x2="760.2" y2="229.93"/><polyline class="cls-1" points="766.52 229.93 772.52 229.93 772.52 235.93"/><ellipse class="cls-1" cx="266.84" cy="139.95" rx="71.84" ry="19.75"/><ellipse class="cls-1" cx="481.89" cy="139.95" rx="71.84" ry="19.75"/><ellipse class="cls-1" cx="696.95" cy="139.95" rx="71.84" ry="19.75"/><rect class="cls-1" x="409.05" y="230.57" width="144.49" height="27.88"/><rect class="cls-1" x="624.71" y="19.81" width="144.49" height="27.88"/><polyline class="cls-1" points="772.52 253.09 772.52 259.09 766.52 259.09"/><line class="cls-2" x1="753.87" y1="259.09" x2="633.7" y2="259.09"/><polyline class="cls-1" points="627.38 259.09 621.38 259.09 621.38 253.09"/><polyline class="cls-1" points="621.38 235.93 621.38 229.93 627.38 229.93"/><line class="cls-2" x1="640.03" y1="229.93" x2="760.2" y2="229.93"/><polyline class="cls-1" points="766.52 229.93 772.52 229.93 772.52 235.93"/><ellipse class="cls-1" cx="266.84" cy="139.95" rx="71.84" ry="19.75"/><ellipse class="cls-1" cx="481.89" cy="139.95" rx="71.84" ry="19.75"/><ellipse class="cls-1" cx="696.95" cy="139.95" rx="71.84" ry="19.75"/><rect class="cls-1" x="409.05" y="230.57" width="144.49" height="27.88"/><rect class="cls-1" x="624.71" y="19.81" width="144.49" height="27.88"/><polyline class="cls-1" points="772.52 253.09 772.52 259.09 766.52 259.09"/><line class="cls-2" x1="753.87" y1="259.09" x2="633.7" y2="259.09"/><polyline class="cls-1" points="627.38 259.09 621.38 259.09 621.38 253.09"/><polyline class="cls-1" points="621.38 235.93 621.38 229.93 627.38 229.93"/><line class="cls-2" x1="640.03" y1="229.93" x2="760.2" y2="229.93"/><polyline class="cls-1" points="766.52 229.93 772.52 229.93 772.52 235.93"/><text class="cls-3" transform="translate(654.28 38.87)">E<tspan class="cls-4" x="8.83" y="0">n</tspan><tspan class="cls-5" x="18.72" y="0">t</tspan><tspan x="24.83" y="0">wic</tspan><tspan class="cls-6" x="50.28" y="0">k</tspan><tspan x="59" y="0">lung</tspan></text><text class="cls-7" transform="translate(229.68 145.16)">C<tspan class="cls-8" x="10.21" y="0">ommit 1</tspan></text><text class="cls-7" transform="translate(445.09 145.16)">C<tspan class="cls-8" x="10.21" y="0">ommit 2</tspan></text><text class="cls-7" transform="translate(662.76 145.16)">C<tspan class="cls-8" x="10.21" y="0">ommit 3</tspan></text><text class="cls-3" transform="translate(432.65 251.45)">HEA<tspan class="cls-9" x="31.52" y="0">D</tspan><tspan x="43.73" y="0">-</tspan><tspan class="cls-10" x="49.24" y="0">M</tspan><tspan x="63.78" y="0">as</tspan><tspan class="cls-11" x="79.54" y="0">t</tspan><tspan x="85.37" y="0">er</tspan></text><text class="cls-12" transform="translate(116.6 47.7)">E<tspan class="cls-13" x="16.19" y="0">n</tspan><tspan class="cls-14" x="34.32" y="0">t</tspan><tspan x="45.51" y="0">wic</tspan><tspan class="cls-15" x="92.18" y="0">k</tspan><tspan x="108.17" y="0">lung</tspan></text><circle class="cls-16" cx="33.75" cy="33.75" r="32.25"/><text class="cls-17" transform="translate(23.79 44.32)">1</text><line class="cls-18" x1="696.95" y1="102.65" x2="696.95" y2="56.39"/><polygon class="cls-19" points="699.86 100.67 696.95 111.51 694.05 100.67 699.86 100.67"/><line class="cls-18" x1="696.95" y1="176.98" x2="696.95" y2="182.98"/><line class="cls-20" x1="696.95" y1="194.4" x2="696.95" y2="211.53"/><line class="cls-18" x1="696.95" y1="217.25" x2="696.95" y2="223.25"/><polygon class="cls-19" points="694.05 178.96 696.95 168.12 699.86 178.96 694.05 178.96"/><line class="cls-18" x1="481.89" y1="176.98" x2="481.89" y2="223.25"/><polygon class="cls-19" points="478.99 178.96 481.89 168.12 484.8 178.96 478.99 178.96"/><line class="cls-18" x1="355.66" y1="139.95" x2="401.93" y2="139.95"/><polygon class="cls-19" points="357.64 142.86 346.8 139.96 357.64 137.05 357.64 142.86"/><line class="cls-18" x1="561.86" y1="139.95" x2="616.98" y2="139.95"/><line class="cls-18" x1="608.13" y1="244.51" x2="602.13" y2="244.51"/><line class="cls-20" x1="590.7" y1="244.51" x2="573.57" y2="244.51"/><line class="cls-18" x1="567.86" y1="244.51" x2="561.86" y2="244.51"/><polygon class="cls-19" points="606.14 241.6 616.99 244.51 606.14 247.42 606.14 241.6"/></g></g></svg>