<svg xmlns="http://www.w3.org/2000/svg" viewBox="0 0 822.28 436.27"><defs><style>.cls-1,.cls-19,.cls-3{fill:none;stroke-miterlimit:10;}.cls-1{stroke:#d82128;}.cls-12,.cls-2{fill:#d82128;}.cls-3{stroke:#1d1d1b;stroke-width:2px;}.cls-4{font-size:19.58px;}.cls-20,.cls-4{fill:#1d1d1b;}.cls-12,.cls-20,.cls-4{font-family:MyriadPro-Regular, Myriad Pro;}.cls-5{letter-spacing:0em;}.cls-6{letter-spacing:0.01em;}.cls-7{letter-spacing:0.02em;}.cls-8{letter-spacing:0.01em;}.cls-9{letter-spacing:0.01em;}.cls-10{letter-spacing:-0.01em;}.cls-11{letter-spacing:-0.01em;}.cls-12{font-size:35.9px;}.cls-13{letter-spacing:-0.03em;}.cls-14{letter-spacing:0em;}.cls-15{letter-spacing:0em;}.cls-16{letter-spacing:0em;}.cls-17{letter-spacing:0.01em;}.cls-18{letter-spacing:0.02em;}.cls-19{stroke:#000;stroke-width:3px;}.cls-20{font-size:37.34px;}</style></defs><title>git-abbildung</title><g id="print"><g id="Parallele_Entwicklung" data-name="Parallele Entwicklung"><line class="cls-1" x1="738.6" y1="112.75" x2="738.6" y2="61.49"/><polygon class="cls-2" points="741.51 110.77 738.6 121.61 735.7 110.77 741.51 110.77"/><line class="cls-1" x1="738.6" y1="343.31" x2="738.6" y2="394.58"/><polygon class="cls-2" points="735.7 345.29 738.6 334.45 741.51 345.29 735.7 345.29"/><line class="cls-1" x1="393.18" y1="224.84" x2="444.44" y2="224.84"/><polygon class="cls-2" points="395.16 227.74 384.32 224.84 395.16 221.93 395.16 227.74"/><line class="cls-1" x1="614.64" y1="200.03" x2="650.89" y2="163.78"/><polygon class="cls-2" points="618.09 200.69 608.37 206.3 613.98 196.58 618.09 200.69"/><line class="cls-1" x1="614.64" y1="252.64" x2="650.89" y2="288.89"/><polygon class="cls-2" points="613.98 256.09 608.37 246.37 618.09 251.98 613.98 256.09"/><ellipse class="cls-3" cx="531.67" cy="224.84" rx="78.36" ry="21.54"/><ellipse class="cls-3" cx="297.09" cy="224.84" rx="78.36" ry="21.54"/><ellipse class="cls-3" cx="738.6" cy="302.63" rx="78.36" ry="21.54"/><ellipse class="cls-3" cx="738.6" cy="152.75" rx="78.36" ry="21.54"/><rect class="cls-3" x="659.8" y="21.47" width="157.6" height="30.41"/><rect class="cls-3" x="663.68" y="404.86" width="157.6" height="30.41"/><ellipse class="cls-3" cx="531.67" cy="224.84" rx="78.36" ry="21.54"/><ellipse class="cls-3" cx="297.09" cy="224.84" rx="78.36" ry="21.54"/><ellipse class="cls-3" cx="738.6" cy="302.63" rx="78.36" ry="21.54"/><ellipse class="cls-3" cx="738.6" cy="152.75" rx="78.36" ry="21.54"/><rect class="cls-3" x="659.8" y="21.47" width="157.6" height="30.41"/><rect class="cls-3" x="663.68" y="404.86" width="157.6" height="30.41"/><ellipse class="cls-3" cx="531.67" cy="224.84" rx="78.36" ry="21.54"/><ellipse class="cls-3" cx="297.09" cy="224.84" rx="78.36" ry="21.54"/><ellipse class="cls-3" cx="738.6" cy="302.63" rx="78.36" ry="21.54"/><ellipse class="cls-3" cx="738.6" cy="152.75" rx="78.36" ry="21.54"/><rect class="cls-3" x="659.8" y="21.47" width="157.6" height="30.41"/><rect class="cls-3" x="663.68" y="404.86" width="157.6" height="30.41"/><ellipse class="cls-3" cx="531.67" cy="224.84" rx="78.36" ry="21.54"/><ellipse class="cls-3" cx="297.09" cy="224.84" rx="78.36" ry="21.54"/><ellipse class="cls-3" cx="738.6" cy="302.63" rx="78.36" ry="21.54"/><ellipse class="cls-3" cx="738.6" cy="152.75" rx="78.36" ry="21.54"/><rect class="cls-3" x="659.8" y="21.47" width="157.6" height="30.41"/><rect class="cls-3" x="663.68" y="404.86" width="157.6" height="30.41"/><text class="cls-4" transform="translate(690.69 43.22)">E<tspan class="cls-5" x="9.63" y="0">n</tspan><tspan class="cls-6" x="20.42" y="0">t</tspan><tspan x="27.08" y="0">wic</tspan><tspan class="cls-7" x="54.84" y="0">k</tspan><tspan x="64.36" y="0">lung</tspan></text><text class="cls-4" transform="translate(687.82 425.82)">HEA<tspan class="cls-8" x="34.38" y="0">D</tspan><tspan x="47.69" y="0">-</tspan><tspan class="cls-9" x="53.71" y="0">M</tspan><tspan x="69.56" y="0">as</tspan><tspan class="cls-10" x="86.75" y="0">t</tspan><tspan x="93.12" y="0">er</tspan></text><text class="cls-4" transform="translate(260.25 229.45)"><tspan class="cls-11">C</tspan><tspan x="11.14" y="0">ommit 1</tspan></text><text class="cls-4" transform="translate(491.77 230.58)"><tspan class="cls-11">C</tspan><tspan x="11.14" y="0">ommit 2</tspan></text><text class="cls-4" transform="translate(698.7 308.38)"><tspan class="cls-11">C</tspan><tspan x="11.14" y="0">ommit 3</tspan></text><text class="cls-4" transform="translate(701.79 157.07)"><tspan class="cls-11">C</tspan><tspan x="11.14" y="0">ommit 4</tspan></text><text class="cls-12" transform="translate(127.05 51.89)"><tspan class="cls-13">P</tspan><tspan class="cls-14" x="18.16" y="0">a</tspan><tspan class="cls-15" x="35.46" y="0">r</tspan><tspan x="47.02" y="0">allele E</tspan><tspan class="cls-16" x="150.98" y="0">n</tspan><tspan class="cls-17" x="170.75" y="0">t</tspan><tspan x="182.96" y="0">wic</tspan><tspan class="cls-18" x="233.86" y="0">k</tspan><tspan x="251.3" y="0">lung</tspan></text><circle class="cls-19" cx="36.68" cy="36.68" r="35.18"/><text class="cls-20" transform="translate(29.25 48.21)">2</text></g></g></svg>