<svg xmlns="http://www.w3.org/2000/svg" viewBox="0 0 127.6 127.6"><title>Logo-Farbe</title><circle cx="63.8" cy="63.8" r="56.7" style="fill:#25383c"/><path d="M23.7,23.7a56.8,56.8,0,0,0,0,80.2l80.2-80.2A56.8,56.8,0,0,0,23.7,23.7Z" style="fill:#b82327"/><path d="M90.3,75.9a8.6,8.6,0,0,0-.8-3.8.6.6,0,0,1-.1-.4c.1-.1.2-.2.2-.9a4,4,0,0,0-.4-2.5A3.3,3.3,0,0,0,87.3,67l-2.7-.7a.2.2,0,0,1-.2-.2V64a.9.9,0,0,0,.6-.9,2.4,2.4,0,0,0,0-.9h0c0-.3.2-3-2.5-3a2.6,2.6,0,0,0-2.8,2.7,3.8,3.8,0,0,0,.1,1.5,7.9,7.9,0,0,0,.8,1.1v1.8l-.2.2h-.7c-1.4.1-3.9.6-4.6,1.8s-.8,4-1.1,4.6.3,1.6.4,2.3.5,3.3.5,3.3.4.6.3.8,0,2.5.5,2.9,1.1,2.9,1.6,2.8-.1-1.8-.1-2v-.2l.2-.3V81.3a5.6,5.6,0,0,0,0-1.3c-.2-.5-1-.5-.9-1.1s.4-2.9.4-3.6a15.6,15.6,0,0,0-.6-2.1l1.2-1.6s.4,2.2.4,2.8.7,1,.7,2.6a21.2,21.2,0,0,1-.2,2.4c-.1.8,0,2.7,0,3.1h0l-.5,2c-.1,0-.1.1,0,.2l.9,3.1a9.9,9.9,0,0,0,1.9,2.4,17,17,0,0,0-.5,2.3c.1.7.5,1.7.8,2.8a12,12,0,0,1,.3,2.4c0,.6.6,2.1.8,3.1s-.5,1.7-.4,1.9a3.9,3.9,0,0,1-.1,1.5c-.2.4-1,2.5-.7,3.2s1.1.6,1.5.6-.3,2.8,1.3,2.9,1.6-2.2,1.5-2.9a8.3,8.3,0,0,1,.3-3.9l1.2-2.8c.4-.8,0-3.6,0-4.1a5.2,5.2,0,0,1,.6-2,14.6,14.6,0,0,0,.5-2.7c.1-.7.9-3.8,1-4.6s.1-3.6-.3-4.6a23.9,23.9,0,0,1-.8-5.7h0c.2,1,2,2.1,2.6,1.4S90.2,76.6,90.3,75.9ZM84.2,96.7a14,14,0,0,1-.6,2.8h-.1a20.8,20.8,0,0,1,0-2.5c.1-.5.3-2.1.4-2.7H84A9,9,0,0,1,84.2,96.7Z" style="fill:#b82327"/><path d="M89.3,76.3a3.9,3.9,0,0,0-.5-1.4,9.5,9.5,0,0,1-1.5-2.1c-.2-.8-.3-2.7-.5-3.3a7.6,7.6,0,0,0-1.6-2.1c-.2-.1-.1.2-.1.4s.5,1.5.5,1.8-.4-.6-.5-.4a10.4,10.4,0,0,0,.4,1.3,7.7,7.7,0,0,0,.2,1.5l.7,1.5c.1.3.6,2.7.7,2.9l.5,1.3Z" style="fill:#b82327"/><path d="M80.4,61.2h.2a4.4,4.4,0,0,0,1.5.5,5.2,5.2,0,0,0,2.1-.4c.4-.4.3,2.6.2,2.8s-1.1,1.8-1.8,1.8a3.6,3.6,0,0,1-2-1.4,15.6,15.6,0,0,1-.3-2.5C80.3,61.6,80.4,61.4,80.4,61.2Z" style="fill:#b82327"/><text transform="matrix(0.19, -0.98, 0.98, 0.19, 18.38, 58.08)" style="font-size:9.77905559539795px;fill:#25383c;font-family:Consolas-Bold, Consolas;font-weight:700">S</text><text transform="matrix(0.3, -0.95, 0.95, 0.3, 19.35, 52.99)" style="font-size:9.77905559539795px;fill:#25383c;font-family:Consolas-Bold, Consolas;font-weight:700">o</text><text transform="matrix(0.41, -0.91, 0.91, 0.41, 20.91, 48.02)" style="font-size:9.77905559539795px;fill:#25383c;font-family:Consolas-Bold, Consolas;font-weight:700">u</text><text transform="matrix(0.51, -0.86, 0.86, 0.51, 23.01, 43.25)" style="font-size:9.77905559539795px;fill:#25383c;font-family:Consolas-Bold, Consolas;font-weight:700">r</text><text transform="matrix(0.6, -0.8, 0.8, 0.6, 25.64, 38.78)" style="font-size:9.77905559539795px;fill:#25383c;font-family:Consolas-Bold, Consolas;font-weight:700">c</text><text transform="matrix(0.69, -0.72, 0.72, 0.69, 28.77, 34.63)" style="font-size:9.77905559539795px;fill:#25383c;font-family:Consolas-Bold, Consolas;font-weight:700">e</text><text transform="matrix(0.77, -0.64, 0.64, 0.77, 32.35, 30.86)" style="font-size:9.77905559539795px;fill:#25383c;font-family:Consolas-Bold, Consolas;font-weight:700"> </text><text transform="matrix(0.84, -0.55, 0.55, 0.84, 36.35, 27.53)" style="font-size:9.77905559539795px;fill:#25383c;font-family:Consolas-Bold, Consolas;font-weight:700">C</text><text transform="matrix(0.89, -0.45, 0.45, 0.89, 40.7, 24.68)" style="font-size:9.77905559539795px;fill:#25383c;font-family:Consolas-Bold, Consolas;font-weight:700">o</text><text transform="matrix(0.94, -0.34, 0.34, 0.94, 45.35, 22.34)" style="font-size:9.77905559539795px;fill:#25383c;font-family:Consolas-Bold, Consolas;font-weight:700">d</text><text transform="matrix(0.97, -0.23, 0.23, 0.97, 50.24, 20.54)" style="font-size:9.77905559539795px;fill:#25383c;font-family:Consolas-Bold, Consolas;font-weight:700">e</text><text transform="translate(106 49)" style="writing-mode:tb;text-orientation:upright;glyph-orientation-vertical:0deg;font-size:9.779032707214355px;fill:#b82327;font-family:MyriadPro-Regular, Myriad Pro">OCR</text><text transform="matrix(0.71, -0.7, 0.7, 0.71, 29.86, 63.92)" style="font-size:10.130026817321777px;fill:#25383c;font-family:Consolas">01011111<tspan x="0" y="12.2">11001100</tspan></text></svg>